<?xml version="1.0" encoding="utf-8"?>
<!-- Generator: Adobe Illustrator 16.0.0, SVG Export Plug-In . SVG Version: 6.00 Build 0)  -->
<!DOCTYPE svg PUBLIC "-//W3C//DTD SVG 1.1//EN" "http://www.w3.org/Graphics/SVG/1.1/DTD/svg11.dtd">
<svg version="1.1" id="Layer_1" xmlns="http://www.w3.org/2000/svg" xmlns:xlink="http://www.w3.org/1999/xlink" x="0px" y="0px"
	 width="578.167px" height="83.476px" viewBox="0 0 578.167 83.476" enable-background="new 0 0 578.167 83.476"
	 xml:space="preserve">
<g>
	<g>
		<path fill-rule="evenodd" clip-rule="evenodd" fill="#32CD00" d="M369.591,72.174v-2.765c0,0,25.65-8.437,25.814-33.258
			C395.568,11.329,370.327-0.048,354.181,0c-16.146,0.049-41.342,11.266-41.223,36.151c0.119,24.884,25.814,33.258,25.814,33.258
			v2.765h-20.81l-5.005-10.141l0,17.257h30.818V65.194c0,0-18.297-8.072-18.307-29.043c-0.01-20.972,15.587-30.9,28.711-30.883
			c13.125,0.018,28.508,9.835,28.58,30.883c0.072,21.047-18.175,29.043-18.175,29.043l0,14.096h30.819V62.033L390.4,72.174H369.591z
			"/>
	</g>
</g>
<ellipse fill="#32CD00" cx="339.495" cy="36.057" rx="6.392" ry="6.572"/>
<ellipse fill="#32CD00" cx="368.553" cy="36.057" rx="6.388" ry="6.572"/>
<rect x="344.5" y="66.272" fill="#32CD00" width="3" height="14"/>
<rect x="349.5" y="66.272" fill="#32CD00" width="3" height="14"/>
<rect x="354.5" y="66.272" fill="#32CD00" width="2" height="14"/>
<rect x="358.5" y="66.272" fill="#32CD00" width="3" height="14"/>
<text transform="matrix(1 0 0 1 395.4058 69.127)" font-family="'SitkaBanner'" font-size="74.0687">MEGA</text>
<text transform="matrix(1 0 0 1 -1.3477 69.2725)" font-family="'SitkaBanner'" font-size="74.0597">PROJECT</text>
</svg>
